SplineFontDB: 3.2
FontName: Untitled1
FullName: Untitled1
FamilyName: Untitled1
Weight: Regular
Copyright: Copyright (c) 2020, Davide
UComments: "2020-7-29: Created with FontForge (http://fontforge.org)"
Version: 001.000
ItalicAngle: 0
UnderlinePosition: -100
UnderlineWidth: 50
Ascent: 800
Descent: 200
InvalidEm: 0
LayerCount: 2
Layer: 0 0 "Sfondo" 1
Layer: 1 0 "Fore" 0
XUID: [1021 7 -371634410 3782331]
StyleMap: 0x0000
FSType: 0
OS2Version: 0
OS2_WeightWidthSlopeOnly: 0
OS2_UseTypoMetrics: 1
CreationTime: 1596040100
ModificationTime: 1596115017
OS2TypoAscent: 0
OS2TypoAOffset: 1
OS2TypoDescent: 0
OS2TypoDOffset: 1
OS2TypoLinegap: 90
OS2WinAscent: 0
OS2WinAOffset: 1
OS2WinDescent: 0
OS2WinDOffset: 1
HheadAscent: 0
HheadAOffset: 1
HheadDescent: 0
HheadDOffset: 1
OS2Vendor: 'PfEd'
DEI: 91125
Encoding: ISO8859-1
UnicodeInterp: none
NameList: AGL For New Fonts
DisplaySize: -48
AntiAlias: 1
FitToEm: 0
WinInfo: 0 38 14
BeginChars: 256 75

StartChar: E
Encoding: 69 69 0
Width: 1000
LayerCount: 2
Fore
SplineSet
227 680 m 1
 569 730 l 1
 572 628 l 25
 340 566 l 1
 384 432 l 1
 494 448 l 25
 512 324 l 25
 424 294 l 1
 430 234 l 5
 640 242 l 1
 638 20 l 25
 286 58 l 25
 227 680 l 1
EndSplineSet
Validated: 1
EndChar

StartChar: T
Encoding: 84 84 1
Width: 1000
VStem: 415 96<86 532> 416 102<86 532>
LayerCount: 2
Fore
SplineSet
416 86 m 25x40
 518 18 l 25x40
 511 564 l 1
 619 606 l 25
 677 714 l 25
 245 706 l 25
 311 512 l 25
 415 532 l 1x80
 416 86 l 25x40
EndSplineSet
Validated: 9
EndChar

StartChar: A
Encoding: 65 65 2
Width: 1000
LayerCount: 2
Fore
SplineSet
384 394 m 25
 431 536 l 1
 477 396 l 1
 384 394 l 25
284 70 m 1
 458 40 l 25
 457 260 l 1
 511 192 l 1
 528 38 l 25
 640 82 l 1
 520 718 l 1
 388 718 l 1
 284 70 l 1
EndSplineSet
Validated: 9
EndChar

StartChar: O
Encoding: 79 79 3
Width: 1000
Flags: HO
HStem: 0 254<357.5 538.891> 666 118<357.5 558.789>
LayerCount: 2
Fore
SplineSet
412 460 m 0
 412 346 468 254 536 254 c 0
 604 254 660 346 660 460 c 0
 660 574 604 666 536 666 c 0
 468 666 412 574 412 460 c 0
168 398 m 0
 135.548828125 708 266 726 436 746 c 0
 603.842773438 765.74609375 732.000072149 673.999994772 712 398 c 0
 696.388671875 182.564453125 611 0 442 0 c 0
 273 0 190.488261592 183.173826067 168 398 c 0
EndSplineSet
EndChar

StartChar: N
Encoding: 78 78 4
Width: 1000
HStem: 726 20G<214.006 236.44>
LayerCount: 2
Fore
SplineSet
183 102 m 5
 215 746 l 1
 483 496 l 1
 443 740 l 1
 725 706 l 1
 693 84 l 1
 403 386 l 1
 485 28 l 1
 183 102 l 5
EndSplineSet
Validated: 1
EndChar

StartChar: R
Encoding: 82 82 5
Width: 1000
HStem: 644 68<362 483.989>
LayerCount: 2
Fore
SplineSet
347 496 m 1
 409 504 442.275390625 499.217773438 473 552 c 0
 512 619 476 629 461 643 c 1
 362 644 l 1
 347 496 l 1
248 48 m 25
 299 712 l 1
 495 712 l 25
 525 685 559 678 571 642 c 24
 587 594 579 560 561 514 c 24
 547 477 520 469 493 440 c 25
 541 396 l 1
 562 142 l 25
 478 106 l 25
 461 320 l 1
 419 376 l 1
 402 86 l 25
 248 48 l 25
EndSplineSet
Validated: 33
EndChar

StartChar: I
Encoding: 73 73 6
Width: 1000
HStem: 16 21G<511.739 691.083> 724 20G<614.436 717.22>
VStem: 417 160<287.75 538> 419 150<260 502.25>
LayerCount: 2
Fore
SplineSet
690 16 m 25xd0
 280 62 l 25
 285 256 l 1
 419 260 l 25xd0
 417 566 l 25
 321 564 l 25
 317 666 l 1
 717 744 l 25
 719 562 l 1
 577 538 l 25xe0
 569 252 l 25
 703 256 l 1
 690 16 l 25xd0
EndSplineSet
Validated: 1
EndChar

StartChar: S
Encoding: 83 83 7
Width: 1000
LayerCount: 2
Fore
SplineSet
283 501 m 0
 243.374653881 548.550415343 250.063459591 631.143572 305 685 c 0
 410.001953125 787.9375 622.540039062 721.489257812 664 662 c 0
 587 524 l 1
 515.319335938 558.92578125 407.846384856 579.775307088 433 491 c 0
 455.094726562 413.020507812 558 275 605 209 c 1
 638 128 572.376953125 34.935546875 491 39 c 0
 353.157226562 45.8857421875 288 142 288 142 c 1
 347 201 l 1
 347 201 593 -8 391 340 c 0
 283 501 l 0
EndSplineSet
Validated: 33
EndChar

StartChar: H
Encoding: 72 72 8
Width: 1000
HStem: 738 20G<600.289 745>
VStem: 256 194<68 172.533> 601 144<578.552 748>
LayerCount: 2
Fore
SplineSet
256 68 m 29
 211 740 l 1
 405 738 l 25
 451 380 l 25
 587 364 l 25
 601 758 l 25
 745 748 l 1
 716 46 l 29
 570 68 l 29
 581 314 l 1
 451 332 l 1
 450 38 l 29
 256 68 l 29
EndSplineSet
Validated: 1
EndChar

StartChar: D
Encoding: 68 68 9
Width: 1000
HStem: 594 117<369 470.917>
LayerCount: 2
Fore
SplineSet
413 144 m 25
 437 148 475 154 475 154 c 0
 621 244 584 542 431 594 c 9
 369 592 l 25
 413 144 l 25
323 0 m 1
 253 710 l 1
 531 711 l 1
 832.61328125 652.172851562 799.347029474 65.8799344042 555 17 c 0
 555 17 446 0 323 0 c 1
EndSplineSet
Validated: 33
EndChar

StartChar: L
Encoding: 76 76 10
Width: 1000
VStem: 249 108<572.233 681.944>
LayerCount: 2
Fore
SplineSet
292 18 m 25
 249 680 l 1
 357 710 l 25
 373 200 l 25
 593 232 l 1
 660 18 l 25
 292 18 l 25
EndSplineSet
Validated: 1
EndChar

StartChar: F
Encoding: 70 70 11
Width: 1000
HStem: 352 122<333 585> 568 136<313 496> 570 144<356 559>
LayerCount: 2
Fore
SplineSet
284 28 m 29xc0
 251 704 l 1xc0
 601 714 l 25
 559 570 l 25xa0
 313 568 l 25
 317 476 l 25
 587 474 l 25
 585 352 l 25
 333 356 l 1
 360 28 l 29
 284 28 l 29xc0
EndSplineSet
Validated: 1
EndChar

StartChar: C
Encoding: 67 67 12
Width: 1000
LayerCount: 2
Fore
SplineSet
662 59 m 4
 616 156 l 1
 616 156 345 93 371 329 c 0
 404.728515625 635.154296875 663 522 663 522 c 0
 729 666 l 5
 193.838692508 991.027242531 43.444694794 -88.5052692063 662 59 c 4
EndSplineSet
Validated: 41
EndChar

StartChar: M
Encoding: 77 77 13
Width: 1000
VStem: 215 146<70 174.632>
LayerCount: 2
Fore
SplineSet
463 0 m 29
 593 390 l 25
 621 54 l 25
 837 94 l 25
 835 630 l 25
 571 710 l 25
 449 250 l 25
 373 680 l 25
 177 638 l 25
 215 70 l 25
 361 52 l 25
 357 354 l 25
 463 0 l 29
EndSplineSet
Validated: 9
EndChar

StartChar: U
Encoding: 85 85 14
Width: 1000
VStem: 593 48<594.462 706>
LayerCount: 2
Fore
SplineSet
277 632 m 5
 405 706 l 1
 454 272 l 21
 496 54 558 138 567 270 c 0
 593 714 l 9
 641 706 l 1
 640 228 l 1
 640 228 619.999992135 -8.00003097035 494 24 c 0
 316.270507812 69.1376953125 277 632 277 632 c 5
EndSplineSet
Validated: 33
EndChar

StartChar: G
Encoding: 71 71 15
Width: 1000
Flags: W
LayerCount: 2
Fore
SplineSet
621 61 m 0
 188.59882999 -117.345188447 223 990 691 684 c 1
 689 463 l 0
 675.283203125 515.546875 388 686 380 431 c 0
 372.340820312 186.872070312 448.329128156 161.078990757 523 179 c 0
 573 191 555 307 541 348 c 0
 501 384 l 9
 697 380 l 1
 683 169 l 1
 672 69 621 61 621 61 c 0
EndSplineSet
Validated: 33
EndChar

StartChar: backslash
Encoding: 92 92 16
Width: 1000
LayerCount: 2
Fore
SplineSet
554 30 m 29
 690 32 l 25
 472 698 l 25
 342 700 l 25
 554 30 l 29
EndSplineSet
Validated: 9
EndChar

StartChar: slash
Encoding: 47 47 17
Width: 1000
Flags: W
LayerCount: 2
Fore
SplineSet
370 30 m 1
 506 32 l 1
 708 698 l 1
 578 700 l 1
 370 30 l 1
EndSplineSet
Validated: 9
EndChar

StartChar: Y
Encoding: 89 89 18
Width: 1000
LayerCount: 2
Fore
SplineSet
374 41 m 1
 502 41 l 1
 504 291 l 1
 640 637 l 1
 552 705 l 25
 456 383 l 1
 344 765 l 25
 210 659 l 25
 372 237 l 1
 374 41 l 1
EndSplineSet
Validated: 9
EndChar

StartChar: P
Encoding: 80 80 19
Width: 1000
Flags: W
VStem: 292 76<76 324 410 494.2> 302 69<235.8 324 410 520>
LayerCount: 2
Fore
SplineSet
371 410 m 1x40
 433 418 458.275390625 421.217773438 489 474 c 0
 528 541 463 552 429 554 c 1
 369 520 l 1
 371 410 l 1x40
373 324 m 1
 368 76 l 1
 292 42 l 1x80
 302 688 l 1
 498 708 l 1
 560 696 572 674 584 638 c 4
 600 590 587.481191344 543.200291409 570 497 c 0
 556 460 525 419 498 390 c 1
 373 324 l 1
EndSplineSet
Validated: 33
EndChar

StartChar: W
Encoding: 87 87 20
Width: 1000
LayerCount: 2
Fore
SplineSet
311 35 m 25
 429 345 l 25
 523 67 l 1
 587 75 l 25
 709 611 l 1
 591 665 l 25
 519 353 l 1
 425 679 l 1
 353 441 l 25
 301 685 l 1
 157 611 l 25
 311 35 l 25
EndSplineSet
Validated: 9
EndChar

StartChar: B
Encoding: 66 66 21
Width: 1000
LayerCount: 2
Fore
SplineSet
362 127 m 5
 462 161 l 0
 514 289 421 291 421 291 c 1
 349 283 l 25
 362 127 l 5
467 469 m 0
 631 531 497 593 497 593 c 9
 441 587 l 25
 467 469 l 0
267 39 m 1
 227 667 l 1
 503 683 l 1
 503 683 723 571 583 425 c 0
 583 425 821 253 541 49 c 0
 541 49 375 49 267 39 c 1
EndSplineSet
Validated: 33
EndChar

StartChar: V
Encoding: 86 86 22
Width: 1000
HStem: 37 21G<491.481 535.686>
LayerCount: 2
Fore
SplineSet
530 37 m 29
 426 91 l 1
 260 639 l 25
 462 689 l 1
 492 295 l 25
 674 651 l 1
 700 635 l 1
 530 37 l 29
EndSplineSet
Validated: 1
EndChar

StartChar: K
Encoding: 75 75 23
Width: 1000
VStem: 290 110<53.6 122.5>
LayerCount: 2
Fore
SplineSet
290 33 m 25
 400 55 l 25
 372 325 l 25
 538 53 l 25
 610 59 l 25
 454 401 l 1
 588 679 l 1
 546 693 l 1
 416 459 l 1
 436 699 l 25
 258 677 l 25
 290 33 l 25
EndSplineSet
Validated: 9
EndChar

StartChar: J
Encoding: 74 74 24
Width: 1000
LayerCount: 2
Fore
SplineSet
333 440 m 0
 195 314 l 1
 189 181 285.940429688 -17.837890625 449 42 c 0
 558 82 653 428 611 550 c 0
 611 550 720 578 757 589 c 1
 747 766 l 1
 271 674 l 1
 285 548 l 1
 449 544 l 1
 451 344 l 1
 413 142 319 308 333 440 c 0
EndSplineSet
Validated: 41
EndChar

StartChar: X
Encoding: 88 88 25
Width: 1000
LayerCount: 2
Fore
SplineSet
374 31 m 1
 220 73 l 25
 330 373 l 1
 236 669 l 1
 354 705 l 1
 398 535 l 1
 482 657 l 1
 534 633 l 25
 446 369 l 1
 574 153 l 1
 480 77 l 1
 410 265 l 1
 374 31 l 1
EndSplineSet
Validated: 1
EndChar

StartChar: Q
Encoding: 81 81 26
Width: 1000
HStem: 652 83<382.5 499.106>
VStem: 252 171<358.857 582.332> 529 83<359.67 581.385>
LayerCount: 2
Fore
SplineSet
444 186 m 1
 492 227 l 0
 527 178 558 152 636 173 c 1
 582 75 l 0
 522 21 444 186 444 186 c 1
423 532 m 0
 423 469 453 404 476 404 c 0
 499 404 529 473 529 536 c 0
 529 599 497 652 474 652 c 0
 451 652 423 595 423 532 c 0
252 443 m 0
 252 604 333 735 432 735 c 0
 531 735 612 604 612 443 c 0
 612 282 531 151 432 151 c 0
 333 151 252 282 252 443 c 0
EndSplineSet
Validated: 37
EndChar

StartChar: Z
Encoding: 90 90 27
Width: 1000
LayerCount: 2
Fore
SplineSet
269 450 m 25
 243 698 l 1
 643 668 l 25
 459 318 l 1
 719 322 l 1
 653 54 l 25
 305 116 l 1
 461 478 l 1
 269 450 l 25
EndSplineSet
Validated: 1
EndChar

StartChar: zero
Encoding: 48 48 28
Width: 1000
Flags: W
HStem: 0 178<338.889 482> 646 136<307.828 365.036>
LayerCount: 2
Fore
SplineSet
241 418 m 0
 241 304 295 178 363 178 c 0
 431 178 425 304 425 418 c 0
 425 532 385 646 317 646 c 0
 249 646 241 532 241 418 c 0
169 386 m 0
 137 696 291.061430014 785.871065714 413 782 c 0
 539 778 689.000072149 683.999994772 669 408 c 0
 653.388671875 192.564453125 551 0 413 0 c 0
 285 0 191.178929127 171.141624085 169 386 c 0
EndSplineSet
Validated: 33
EndChar

StartChar: one
Encoding: 49 49 29
Width: 1000
VStem: 421 96<82 175.882>
LayerCount: 2
Fore
SplineSet
247 534 m 1
 387 538 l 1
 421 82 l 5
 517 28 l 1
 539 742 l 1
 399 720 l 1
 247 534 l 1
EndSplineSet
Validated: 9
EndChar

StartChar: two
Encoding: 50 50 30
Width: 1000
HStem: 44 150<507.049 643>
LayerCount: 2
Fore
SplineSet
285 476 m 0
 271 696 l 1
 271 696 595 824 657 590 c 0
 694.351341748 449.028806951 621 386 507 190 c 4
 507 190 574 193 643 194 c 13
 643 44 l 25
 335 46 l 1
 427 140 523 250 507 388 c 24
 496 480 451 584 285 476 c 0
EndSplineSet
Validated: 33
EndChar

StartChar: three
Encoding: 51 51 31
Width: 1000
Flags: W
HStem: 36 144<328.388 473.537>
LayerCount: 2
Fore
SplineSet
611 668 m 0
 501.5390625 837.665039062 271 696 271 696 c 1
 285 476 l 0
 451 584 483 514 483 514 c 0
 541 438 365 274 365 274 c 0
 629 298 517.594386167 153.713481579 293 180 c 1
 299 82 l 0
 317 38 457 36 457 36 c 1
 637 66 702 167 616 333 c 4
 616 333 582 369 530 355 c 5
 606 433 667.923179869 579.768766497 611 668 c 0
EndSplineSet
Validated: 41
EndChar

StartChar: four
Encoding: 52 52 32
Width: 1000
LayerCount: 2
Fore
SplineSet
362.25 393.08984375 m 5
 220.5 364.200195312 l 5
 357.4296875 597.827148438 l 5
 362.25 393.08984375 l 5
348.75 50.6904296875 m 5
 505.125 64.599609375 l 5
 495 259.33984375 l 5
 534.375 265.759765625 l 5
 527.625 410.209960938 l 5
 488.25 408.0703125 l 5
 466.875 737.629882812 l 5
 355.5 732.280273438 l 5
 148.5 333.169921875 l 5
 154.125 234.73046875 l 5
 337.5 247.5703125 l 29
 348.75 50.6904296875 l 5
EndSplineSet
Validated: 9
EndChar

StartChar: five
Encoding: 53 53 33
Width: 1109
Flags: W
HStem: 74.0898 81.3701<243.173 348.754> 352.19 133.899<284.872 394.286>
VStem: 187.92 325.26
LayerCount: 2
Fore
SplineSet
187.919921875 74.08984375 m 0
 243.172851562 155.459960938 l 1
 275.490234375 160.610351562 325.712890625 145.268554688 359.932617188 186.360351562 c 0
 427.6953125 267.73046875 405.1796875 308.059570312 387.037109375 354.25 c 0
 359.932617188 423.259765625 208.76953125 352.190429688 208.76953125 352.190429688 c 0
 190.004882812 670.459960938 l 1
 513.1796875 713.719726562 l 1
 487.1171875 546.860351562 l 1
 284.872070312 548.919921875 l 1
 284.872070312 481.969726562 l 1
 335.955078125 486.08984375 l 1
 415.184570312 484.030273438 495.45703125 443.860351562 494.415039062 343.950195312 c 0
 493.538085938 259.922851562 454.799804688 134.860351562 378.697265625 103.959960938 c 0
 302.956054688 73.20703125 187.919921875 74.08984375 187.919921875 74.08984375 c 0
EndSplineSet
Validated: 33
EndChar

StartChar: six
Encoding: 54 54 34
Width: 27526
Flags: W
HStem: 44.9746 116.025<343.865 472.44> 338.905 88.3994<438.018 494.903>
VStem: 217.13 199.92<178.441 252.347> 511.06 55.9307<179.518 324.005>
LayerCount: 2
Fore
SplineSet
417.049804688 249.400390625 m 0
 417.049804688 200.780273438 442.040039062 161 464.650390625 161 c 0
 487.259765625 161 511.059570312 199.674804688 511.059570312 248.294921875 c 0
 511.059570312 296.915039062 490.830078125 338.905273438 468.219726562 338.905273438 c 0
 445.610351562 338.905273438 417.049804688 298.01953125 417.049804688 249.400390625 c 0
218.3203125 236.139648438 m 1
 220.700195312 377.580078125 293.290039062 566.53515625 374.209960938 669.299804688 c 0
 561.040039062 691.400390625 l 1
 482.5 611.83984375 430.770507812 430.423828125 432.51953125 420.674804688 c 0
 432.51953125 420.674804688 301.620117188 307.96484375 218.3203125 236.139648438 c 1
217.129882812 236.139648438 m 0
 217.129882812 341.115234375 295.690429688 425.478515625 392.059570312 427.3046875 c 0
 508.6796875 429.514648438 565.799804688 396.365234375 566.990234375 236.139648438 c 0
 567.76953125 131.16796875 488.450195312 44.974609375 392.059570312 44.974609375 c 0
 295.669921875 44.974609375 217.129882812 131.165039062 217.129882812 236.139648438 c 0
EndSplineSet
Validated: 37
EndChar

StartChar: seven
Encoding: 55 55 35
Width: 1000
HStem: 681.056 20G<480.145 695.327>
LayerCount: 2
Fore
SplineSet
297.697265625 470.64453125 m 29
 261.23828125 661.3671875 l 29
 702.515625 701.055664062 l 29
 462.389648438 32.9736328125 l 29
 325.35546875 91.4033203125 l 29
 546.622070312 490.48828125 l 29
 297.697265625 470.64453125 l 29
EndSplineSet
Validated: 1
EndChar

StartChar: eight
Encoding: 56 56 36
Width: 1000
HStem: 36.9111 96.2598<362.213 538.853> 389.544 47.6533<306.031 536.473> 629.716 88.6348<327.624 478.862>
VStem: 213.664 270.436<148.519 327.43> 569.801 58.0869<152.391 328.822>
LayerCount: 2
Fore
SplineSet
290.794921875 540.12890625 m 4
 290.794921875 490.569335938 308.888671875 450.540039062 331.741210938 450.540039062 c 4
 354.594726562 450.540039062 372.688476562 490.569335938 372.688476562 540.12890625 c 4
 372.688476562 589.6875 354.594726562 629.715820312 331.741210938 629.715820312 c 4
 308.888671875 629.715820312 290.794921875 589.6875 290.794921875 540.12890625 c 4
484.099609375 238.0078125 m 4
 484.099609375 179.870117188 503.143554688 133.170898438 526.94921875 133.170898438 c 4
 550.755859375 133.170898438 569.80078125 179.870117188 569.80078125 238.0078125 c 4
 569.80078125 296.143554688 550.755859375 342.844726562 526.94921875 342.844726562 c 4
 503.143554688 342.844726562 484.099609375 296.143554688 484.099609375 238.0078125 c 4
213.6640625 240.866210938 m 4
 213.6640625 359.046875 301.270507812 437.197265625 419.346679688 437.197265625 c 4
 537.424804688 437.197265625 627.887695312 367.624023438 627.887695312 249.444335938 c 4
 627.887695312 131.264648438 539.329101562 36.9111328125 421.251953125 36.9111328125 c 4
 303.173828125 36.9111328125 213.6640625 122.686523438 213.6640625 240.866210938 c 4
219.376953125 537.268554688 m 4
 225.090820312 633.528320312 306.03125 718.350585938 421.251953125 718.350585938 c 4
 536.47265625 718.350585938 643.442382812 613.94921875 618.151367188 523.544921875 c 4
 591.62109375 428.71484375 536.47265625 389.543945312 421.251953125 389.543945312 c 4
 306.03125 389.543945312 213.787109375 443.081054688 219.376953125 537.268554688 c 4
EndSplineSet
Validated: 37
EndChar

StartChar: nine
Encoding: 57 57 37
Width: 1000
Flags: W
HStem: 323.361 99.7891<343.784 400.904>
VStem: 268.996 58.1221<439.663 598.122>
LayerCount: 2
Fore
SplineSet
425.567382812 519.891601562 m 0
 427.47265625 573.428710938 402.848632812 618.120117188 379.161132812 618.922851562 c 0
 355.471679688 619.7265625 329.022460938 577.984375 327.118164062 524.446289062 c 0
 325.212890625 470.908203125 344.76171875 423.954101562 368.451171875 423.150390625 c 0
 392.138671875 422.34765625 423.663085938 466.354492188 425.567382812 519.891601562 c 0
635.540039062 527.39453125 m 1
 647 477 495 57 495 57 c 0
 367 43 l 5
 463 210 476.4140625 311.412109375 477 328 c 0
 477.009765625 328.276367188 477.002929688 328.504882812 476.979492188 328.681640625 c 0
 476.979492188 328.681640625 545.453125 451.26171875 635.540039062 527.39453125 c 1
635.540039062 527.39453125 m 0
 631.427734375 411.802734375 545.81640625 321.694335938 444.779296875 323.10546875 c 0
 441.102539062 323.157226562 437.482421875 323.241210938 433.920898438 323.361328125 c 0
 319.046875 327.25390625 264.118164062 368.650390625 268.99609375 539.81640625 c 0
 269.012695312 540.380859375 269.030273438 540.943359375 269.05078125 541.505859375 c 0
 273.135742188 656.330078125 359.262695312 747.51171875 459.7578125 744.106445312 c 0
 560.744140625 740.684570312 639.652414381 642.988313483 635.540039062 527.39453125 c 0
EndSplineSet
Validated: 37
EndChar

StartChar: Ccedilla
Encoding: 199 199 38
Width: 1000
Flags: W
LayerCount: 2
Fore
SplineSet
415.739257812 -103.379882812 m 1
 415.739257812 -103.379882812 453.467773438 -5.26171875 522 -10 c 0
 577.1328125 -13.8125 611.319335938 -151.6796875 528.159179688 -179.049804688 c 0
 528.159179688 -179.049804688 517.379882812 -106.600585938 515.83984375 -100.16015625 c 1
 415.739257812 -103.379882812 l 1
662 59 m 0
 616 156 l 1
 616 156 345 93 371 329 c 0
 404.728515625 635.154296875 663 522 663 522 c 0
 729 666 l 1
 193.838867188 991.02734375 43.4443359375 -88.5048828125 662 59 c 0
EndSplineSet
Validated: 41
EndChar

StartChar: Ntilde
Encoding: 209 209 39
Width: 1000
Flags: W
LayerCount: 2
Fore
SplineSet
344 742 m 5
 448 777 465 756 520 740 c 4
 579.447265625 722.706054688 620.870117188 709.05859375 658 740 c 4
 660 682 l 5
 613 661 571.5390625 658.798828125 520 678 c 4
 469 697 451 725 344 684 c 4
 344 742 l 5
209 -54 m 1
 241 590 l 1
 509 340 l 1
 469 584 l 1
 751 550 l 1
 719 -72 l 1
 429 230 l 1
 511 -128 l 1
 209 -54 l 1
EndSplineSet
Validated: 33
EndChar

StartChar: asciitilde
Encoding: 126 126 40
Width: 1000
Flags: W
LayerCount: 2
Fore
SplineSet
285.909179688 445.650390625 m 1
 434.369140625 511.362304688 458.63671875 471.935546875 537.149414062 441.895507812 c 0
 622.010742188 409.42578125 681.141601562 383.802734375 734.14453125 441.895507812 c 0
 737 333 l 1
 669.907226562 293.573242188 610.721679688 289.440429688 537.149414062 325.490234375 c 0
 464.346679688 361.163085938 438.65234375 413.732421875 285.909179688 336.754882812 c 0
 285.909179688 445.650390625 l 1
EndSplineSet
Validated: 33
EndChar

StartChar: question
Encoding: 63 63 41
Width: 1000
Flags: W
VStem: 349 60<223 289.5>
LayerCount: 2
Fore
SplineSet
317.307617188 63.4619140625 m 0
 305 93 321.768554688 128.154296875 355 142 c 0
 388.23046875 155.846679688 425 143 437.307617188 113.461914062 c 0
 449.615234375 83.9228515625 432.845703125 48.76953125 399.615234375 34.9228515625 c 0
 366.384765625 21.0771484375 329.615234375 33.9228515625 317.307617188 63.4619140625 c 0
203 639 m 0
 281 561 l 1
 299 590 335.417067749 629.781014886 389 592 c 0
 447.507715542 550.746548968 386 502 340 478 c 0
 349 208 l 1
 409 223 l 1
 435 470 l 1
 518 499 536.643555953 617.85662522 473 665 c 0
 365 745 310 703 203 639 c 0
EndSplineSet
Validated: 41
EndChar

StartChar: period
Encoding: 46 46 42
Width: 1000
LayerCount: 2
Fore
SplineSet
351.307617188 49.4619140625 m 4
 339 79 355.768554688 114.154296875 389 128 c 4
 422.23046875 141.846679688 459 129 471.307617188 99.4619140625 c 4
 483.615234375 69.9228515625 466.845703125 34.76953125 433.615234375 20.9228515625 c 4
 400.384765625 7.0771484375 363.615234375 19.9228515625 351.307617188 49.4619140625 c 4
EndSplineSet
Validated: 33
EndChar

StartChar: colon
Encoding: 58 58 43
Width: 1000
Flags: W
LayerCount: 2
Fore
SplineSet
339.391601562 63.4482421875 m 0
 324.5 96.751953125 344.7890625 136.388671875 385 152 c 0
 425.208007812 167.612304688 469.69921875 153.126953125 484.591796875 119.823242188 c 0
 499.484375 86.517578125 479.192382812 46.8828125 438.984375 31.2705078125 c 0
 398.775390625 15.6591796875 354.284179688 30.142578125 339.391601562 63.4482421875 c 0
348.307617188 367.461914062 m 4
 336 397 352.768554688 432.154296875 386 446 c 4
 419.23046875 459.846679688 456 447 468.307617188 417.461914062 c 4
 480.615234375 387.922851562 463.845703125 352.76953125 430.615234375 338.922851562 c 4
 397.384765625 325.077148438 360.615234375 337.922851562 348.307617188 367.461914062 c 4
EndSplineSet
Validated: 33
EndChar

StartChar: comma
Encoding: 44 44 44
Width: 1000
Flags: W
LayerCount: 2
Fore
SplineSet
483 122 m 5
 500 75 506 45 429 -59 c 4
 406.0156323 -90.0438213087 456 -6 451 39 c 4
 483 122 l 5
339.391601562 63.4482421875 m 4
 324.5 96.751953125 344.7890625 136.388671875 385 152 c 4
 425.208007812 167.612304688 469.699946563 153.127278575 484.591796875 119.823242188 c 4
 499.484375 86.517578125 479.192840242 46.8816343818 438.984375 31.2705078125 c 4
 398.775390625 15.6591796875 354.284179688 30.142578125 339.391601562 63.4482421875 c 4
EndSplineSet
Validated: 37
EndChar

StartChar: quotesingle
Encoding: 39 39 45
Width: 1000
Flags: W
LayerCount: 2
Fore
SplineSet
509 686 m 1
 526 639 532 609 455 505 c 0
 432.015625 473.956054688 482 558 477 603 c 0
 509 686 l 1
365.391601562 627.448242188 m 0
 350.5 660.751953125 370.7890625 700.388671875 411 716 c 0
 451.208007812 731.612304688 495.700195312 717.126953125 510.591796875 683.823242188 c 0
 525.484375 650.517578125 505.192382812 610.881835938 464.984375 595.270507812 c 0
 424.775390625 579.659179688 380.284179688 594.142578125 365.391601562 627.448242188 c 0
EndSplineSet
Validated: 37
EndChar

StartChar: exclam
Encoding: 33 33 46
Width: 1000
Flags: W
VStem: 311 164
LayerCount: 2
Fore
SplineSet
437 188 m 1
 373 226 l 1
 311 638 l 5
 475 696 l 1
 437 188 l 1
351.307617188 49.4619140625 m 0
 339 79 355.768554688 114.154296875 389 128 c 0
 422.23046875 141.846679688 459 129 471.307617188 99.4619140625 c 0
 483.615234375 69.9228515625 466.845703125 34.76953125 433.615234375 20.9228515625 c 0
 400.384765625 7.0771484375 363.615234375 19.9228515625 351.307617188 49.4619140625 c 0
EndSplineSet
Validated: 33
EndChar

StartChar: semicolon
Encoding: 59 59 47
Width: 1000
Flags: W
LayerCount: 2
Fore
SplineSet
348.307617188 367.461914062 m 0
 336 397 352.768554688 432.154296875 386 446 c 0
 419.23046875 459.846679688 456 447 468.307617188 417.461914062 c 0
 480.615234375 387.922851562 463.845703125 352.76953125 430.615234375 338.922851562 c 0
 397.384765625 325.077148438 360.615234375 337.922851562 348.307617188 367.461914062 c 0
483 122 m 1
 500 75 506 45 429 -59 c 0
 406.0156323 -90.0438213087 456 -6 451 39 c 0
 483 122 l 1
339.391601562 63.4482421875 m 0
 324.5 96.751953125 344.7890625 136.388671875 385 152 c 0
 425.208007812 167.612304688 469.699946563 153.127278575 484.591796875 119.823242188 c 0
 499.484375 86.517578125 479.192840242 46.8816343818 438.984375 31.2705078125 c 0
 398.775390625 15.6591796875 354.284179688 30.142578125 339.391601562 63.4482421875 c 0
EndSplineSet
Validated: 37
EndChar

StartChar: Oslash
Encoding: 216 216 48
Width: 1000
Flags: W
HStem: 0 254<426.478 538.891> 666 118<357.5 558.789> 742 20G<729.451 758.538>
LayerCount: 2
Fore
SplineSet
117 44 m 25xa0
 747 762 l 25
 777 710 l 25
 197 -42 l 25
 117 44 l 25xa0
412 460 m 0
 412 346 468 254 536 254 c 0
 604 254 660 346 660 460 c 0
 660 574 604 666 536 666 c 0xc0
 468 666 412 574 412 460 c 0
136 392 m 0
 104 702 273 784 442 784 c 0
 611 784 768 668 748 392 c 0
 732.388759715 176.564884068 611 0 442 0 c 0
 273 0 158.178922805 177.141685329 136 392 c 0
EndSplineSet
Validated: 37
EndChar

StartChar: a
Encoding: 97 97 49
Width: 1000
Flags: HW
LayerCount: 2
Fore
SplineSet
384 394 m 25
 431 536 l 1
 477 396 l 1
 384 394 l 25
284 70 m 1
 458 40 l 25
 457 260 l 1
 511 192 l 1
 528 38 l 25
 640 82 l 1
 520 718 l 1
 388 718 l 1
 284 70 l 1
EndSplineSet
EndChar

StartChar: b
Encoding: 98 98 50
Width: 1000
Flags: HW
LayerCount: 2
Fore
SplineSet
362 127 m 5
 462 161 l 0
 514 289 421 291 421 291 c 1
 349 283 l 25
 362 127 l 5
467 469 m 0
 631 531 497 593 497 593 c 9
 441 587 l 25
 467 469 l 0
267 39 m 1
 227 667 l 1
 503 683 l 1
 503 683 723 571 583 425 c 0
 583 425 821 253 541 49 c 0
 541 49 375 49 267 39 c 1
EndSplineSet
EndChar

StartChar: c
Encoding: 99 99 51
Width: 1000
Flags: HW
LayerCount: 2
Fore
SplineSet
662 59 m 4
 616 156 l 1
 616 156 345 93 371 329 c 0
 404.728515625 635.154296875 663 522 663 522 c 0
 729 666 l 5
 193.838692508 991.027242531 43.444694794 -88.5052692063 662 59 c 4
EndSplineSet
EndChar

StartChar: d
Encoding: 100 100 52
Width: 1000
Flags: W
HStem: 594 117<369 470.917>
LayerCount: 2
Fore
SplineSet
413 144 m 25
 437 148 475 154 475 154 c 0
 621 244 584 542 431 594 c 9
 369 592 l 25
 413 144 l 25
323 0 m 1
 253 710 l 1
 531 711 l 1
 832.61328125 652.172851562 799.347029474 65.8799344042 555 17 c 0
 555 17 446 0 323 0 c 1
EndSplineSet
EndChar

StartChar: e
Encoding: 101 101 53
Width: 1000
Flags: HW
LayerCount: 2
Fore
SplineSet
227 680 m 1
 569 730 l 1
 572 628 l 25
 340 566 l 1
 384 432 l 1
 494 448 l 25
 512 324 l 25
 424 294 l 1
 430 234 l 5
 640 242 l 1
 638 20 l 25
 286 58 l 25
 227 680 l 1
EndSplineSet
EndChar

StartChar: f
Encoding: 102 102 54
Width: 1000
Flags: W
HStem: 352 122<333 585> 568 136<313 496> 570 144<356 559>
LayerCount: 2
Fore
SplineSet
284 28 m 29xc0
 251 704 l 1xc0
 601 714 l 25
 559 570 l 25xa0
 313 568 l 25
 317 476 l 25
 587 474 l 25
 585 352 l 25
 333 356 l 1
 360 28 l 29
 284 28 l 29xc0
EndSplineSet
EndChar

StartChar: g
Encoding: 103 103 55
Width: 1000
Flags: HW
LayerCount: 2
Fore
SplineSet
621 61 m 0
 188.59882999 -117.345188447 223 990 691 684 c 1
 689 463 l 0
 675.283203125 515.546875 388 686 380 431 c 0
 372.340820312 186.872070312 448.329128156 161.078990757 523 179 c 0
 573 191 555 307 541 348 c 0
 501 384 l 9
 697 380 l 1
 683 169 l 1
 672 69 621 61 621 61 c 0
EndSplineSet
EndChar

StartChar: h
Encoding: 104 104 56
Width: 1000
Flags: W
HStem: 738 20G<600.289 745>
VStem: 256 194<68 172.533> 601 144<578.552 748>
LayerCount: 2
Fore
SplineSet
256 68 m 29
 211 740 l 1
 405 738 l 25
 451 380 l 25
 587 364 l 25
 601 758 l 25
 745 748 l 1
 716 46 l 29
 570 68 l 29
 581 314 l 1
 451 332 l 1
 450 38 l 29
 256 68 l 29
EndSplineSet
EndChar

StartChar: i
Encoding: 105 105 57
Width: 1000
Flags: W
HStem: 16 21G<511.739 691.083> 724 20G<614.436 717.22>
VStem: 417 160<287.75 538> 419 150<260 502.25>
LayerCount: 2
Fore
SplineSet
690 16 m 25xd0
 280 62 l 25
 285 256 l 1
 419 260 l 25xd0
 417 566 l 25
 321 564 l 25
 317 666 l 1
 717 744 l 25
 719 562 l 1
 577 538 l 25xe0
 569 252 l 25
 703 256 l 1
 690 16 l 25xd0
EndSplineSet
EndChar

StartChar: j
Encoding: 106 106 58
Width: 1000
Flags: HW
LayerCount: 2
Fore
SplineSet
333 440 m 0
 195 314 l 1
 189 181 285.940429688 -17.837890625 449 42 c 0
 558 82 653 428 611 550 c 0
 611 550 720 578 757 589 c 1
 747 766 l 1
 271 674 l 1
 285 548 l 1
 449 544 l 1
 451 344 l 1
 413 142 319 308 333 440 c 0
EndSplineSet
EndChar

StartChar: k
Encoding: 107 107 59
Width: 1000
Flags: W
VStem: 290 110<53.6 122.5>
LayerCount: 2
Fore
SplineSet
290 33 m 25
 400 55 l 25
 372 325 l 25
 538 53 l 25
 610 59 l 25
 454 401 l 1
 588 679 l 1
 546 693 l 1
 416 459 l 1
 436 699 l 25
 258 677 l 25
 290 33 l 25
EndSplineSet
EndChar

StartChar: l
Encoding: 108 108 60
Width: 1000
Flags: W
VStem: 249 108<572.233 681.944>
LayerCount: 2
Fore
SplineSet
292 18 m 25
 249 680 l 1
 357 710 l 25
 373 200 l 25
 593 232 l 1
 660 18 l 25
 292 18 l 25
EndSplineSet
EndChar

StartChar: m
Encoding: 109 109 61
Width: 1000
Flags: W
VStem: 215 146<70 174.632>
LayerCount: 2
Fore
SplineSet
463 0 m 29
 593 390 l 25
 621 54 l 25
 837 94 l 25
 835 630 l 25
 571 710 l 25
 449 250 l 25
 373 680 l 25
 177 638 l 25
 215 70 l 25
 361 52 l 25
 357 354 l 25
 463 0 l 29
EndSplineSet
EndChar

StartChar: n
Encoding: 110 110 62
Width: 1000
Flags: W
HStem: 726 20G<214.006 236.44>
LayerCount: 2
Fore
SplineSet
183 102 m 5
 215 746 l 1
 483 496 l 1
 443 740 l 1
 725 706 l 1
 693 84 l 1
 403 386 l 1
 485 28 l 1
 183 102 l 5
EndSplineSet
EndChar

StartChar: o
Encoding: 111 111 63
Width: 1000
Flags: W
HStem: 0 254<357.5 538.891> 666 118<357.5 558.789>
LayerCount: 2
Fore
SplineSet
412 460 m 4
 412 346 468 254 536 254 c 4
 604 254 660 346 660 460 c 4
 660 574 604 666 536 666 c 4
 468 666 412 574 412 460 c 4
136 392 m 4
 104 702 273 784 442 784 c 4
 611 784 768 668 748 392 c 4
 732.388759715 176.564884068 611 0 442 0 c 4
 273 0 158.178922805 177.141685329 136 392 c 4
EndSplineSet
EndChar

StartChar: p
Encoding: 112 112 64
Width: 1000
Flags: W
VStem: 292 76<76 324 410 494.2> 302 69<235.8 324 410 520>
LayerCount: 2
Fore
SplineSet
371 410 m 1x40
 433 418 458.275390625 421.217773438 489 474 c 0
 528 541 463 552 429 554 c 1
 369 520 l 1
 371 410 l 1x40
373 324 m 1
 368 76 l 1
 292 42 l 1x80
 302 688 l 1
 498 708 l 1
 560 696 572 674 584 638 c 4
 600 590 587.481191344 543.200291409 570 497 c 0
 556 460 525 419 498 390 c 1
 373 324 l 1
EndSplineSet
EndChar

StartChar: q
Encoding: 113 113 65
Width: 1000
Flags: W
HStem: 652 83<382.5 499.106>
VStem: 252 171<358.857 582.332> 529 83<359.67 581.385>
LayerCount: 2
Fore
SplineSet
444 186 m 1
 492 227 l 0
 527 178 558 152 636 173 c 1
 582 75 l 0
 522 21 444 186 444 186 c 1
423 532 m 0
 423 469 453 404 476 404 c 0
 499 404 529 473 529 536 c 0
 529 599 497 652 474 652 c 0
 451 652 423 595 423 532 c 0
252 443 m 0
 252 604 333 735 432 735 c 0
 531 735 612 604 612 443 c 0
 612 282 531 151 432 151 c 0
 333 151 252 282 252 443 c 0
EndSplineSet
EndChar

StartChar: r
Encoding: 114 114 66
Width: 1000
Flags: W
HStem: 644 68<362 483.989>
LayerCount: 2
Fore
SplineSet
347 496 m 1
 409 504 442.275390625 499.217773438 473 552 c 0
 512 619 476 629 461 643 c 1
 362 644 l 1
 347 496 l 1
248 48 m 25
 299 712 l 1
 495 712 l 25
 525 685 559 678 571 642 c 24
 587 594 579 560 561 514 c 24
 547 477 520 469 493 440 c 25
 541 396 l 1
 562 142 l 25
 478 106 l 25
 461 320 l 1
 419 376 l 1
 402 86 l 25
 248 48 l 25
EndSplineSet
EndChar

StartChar: s
Encoding: 115 115 67
Width: 1000
Flags: HW
LayerCount: 2
Fore
SplineSet
283 501 m 0
 243.374653881 548.550415343 250.063459591 631.143572 305 685 c 0
 410.001953125 787.9375 622.540039062 721.489257812 664 662 c 0
 587 524 l 1
 515.319335938 558.92578125 407.846384856 579.775307088 433 491 c 0
 455.094726562 413.020507812 558 275 605 209 c 1
 638 128 572.376953125 34.935546875 491 39 c 0
 353.157226562 45.8857421875 288 142 288 142 c 1
 347 201 l 1
 347 201 593 -8 391 340 c 0
 283 501 l 0
EndSplineSet
EndChar

StartChar: t
Encoding: 116 116 68
Width: 1000
Flags: W
VStem: 415 96<86 532> 416 102<86 532>
LayerCount: 2
Fore
SplineSet
416 86 m 25x40
 518 18 l 25x40
 511 564 l 1
 619 606 l 25
 677 714 l 25
 245 706 l 25
 311 512 l 25
 415 532 l 1x80
 416 86 l 25x40
EndSplineSet
EndChar

StartChar: u
Encoding: 117 117 69
Width: 1000
Flags: W
VStem: 593 48<594.462 706>
LayerCount: 2
Fore
SplineSet
277 632 m 5
 405 706 l 1
 454 272 l 21
 496 54 558 138 567 270 c 0
 593 714 l 9
 641 706 l 1
 640 228 l 1
 640 228 619.999992135 -8.00003097035 494 24 c 0
 316.270507812 69.1376953125 277 632 277 632 c 5
EndSplineSet
EndChar

StartChar: v
Encoding: 118 118 70
Width: 1000
Flags: W
HStem: 37 21G<491.481 535.686>
LayerCount: 2
Fore
SplineSet
530 37 m 29
 426 91 l 1
 260 639 l 25
 462 689 l 1
 492 295 l 25
 674 651 l 1
 700 635 l 1
 530 37 l 29
EndSplineSet
EndChar

StartChar: w
Encoding: 119 119 71
Width: 1000
Flags: HW
LayerCount: 2
Fore
SplineSet
311 35 m 25
 429 345 l 25
 523 67 l 1
 587 75 l 25
 709 611 l 1
 591 665 l 25
 519 353 l 1
 425 679 l 1
 353 441 l 25
 301 685 l 1
 157 611 l 25
 311 35 l 25
EndSplineSet
EndChar

StartChar: x
Encoding: 120 120 72
Width: 1000
Flags: HW
LayerCount: 2
Fore
SplineSet
374 31 m 1
 220 73 l 25
 330 373 l 1
 236 669 l 1
 354 705 l 1
 398 535 l 1
 482 657 l 1
 534 633 l 25
 446 369 l 1
 574 153 l 1
 480 77 l 1
 410 265 l 1
 374 31 l 1
EndSplineSet
EndChar

StartChar: y
Encoding: 121 121 73
Width: 1000
Flags: HW
LayerCount: 2
Fore
SplineSet
374 41 m 1
 502 41 l 1
 504 291 l 1
 640 637 l 1
 552 705 l 25
 456 383 l 1
 344 765 l 25
 210 659 l 25
 372 237 l 1
 374 41 l 1
EndSplineSet
EndChar

StartChar: z
Encoding: 122 122 74
Width: 1000
Flags: HW
LayerCount: 2
Fore
SplineSet
269 450 m 25
 243 698 l 1
 643 668 l 25
 459 318 l 1
 719 322 l 1
 653 54 l 25
 305 116 l 1
 461 478 l 1
 269 450 l 25
EndSplineSet
EndChar
